<svg width="227" height="64" viewBox="0 0 227 64" fill="none" xmlns="http://www.w3.org/2000/svg">
<path d="M18.1415 52.6105C12.9559 57.9931 4.17343 57.9717 1.72071 50.7979C1.24051 49.3934 0.856567 47.9493 0.574178 46.4757C-0.578807 40.459 0.0129472 34.2227 2.27462 28.5551C4.53628 22.8877 8.36627 18.0435 13.2803 14.6354C18.1943 11.2273 23.9716 9.4082 29.8816 9.4082C35.7916 9.4082 41.5689 11.2273 46.4828 14.6354C51.3969 18.0435 55.2269 22.8877 57.4886 28.5553C59.7502 34.2227 60.3419 40.459 59.189 46.4757C58.9066 47.9493 58.5227 49.3934 58.0423 50.7979C55.5896 57.9717 46.8072 57.9931 41.6216 52.6105L33.6168 44.3017C32.852 43.5079 32.931 42.1987 33.142 41.0978C33.2702 40.4285 33.2043 39.7347 32.9527 39.1042C32.7011 38.4737 32.2751 37.9347 31.7284 37.5557C31.1818 37.1766 30.5391 36.9742 29.8816 36.9742C29.2242 36.9742 28.5815 37.1766 28.0348 37.5557C27.488 37.9347 27.062 38.4737 26.8104 39.1042C26.5587 39.7347 26.4929 40.4285 26.6213 41.0978C26.8323 42.1987 26.9111 43.5079 26.1463 44.3017L18.1415 52.6105Z" fill="url(#paint0_linear_46_47)"/>
<path d="M78.608 57.32C77.424 57.32 76.208 56.952 74.96 56.216C73.744 55.48 72.496 54.28 71.216 52.616C70.224 51.304 69.504 49.8 69.056 48.104C68.64 46.408 68.432 44.728 68.432 43.064C68.432 42.264 68.48 41.48 68.576 40.712C68.704 39.848 68.944 38.872 69.296 37.784C69.648 36.664 70.016 35.752 70.4 35.048C70.528 34.792 70.704 34.536 70.928 34.28C71.184 34.024 71.344 33.896 71.408 33.896C71.44 33.896 71.456 33.928 71.456 33.992C71.456 34.12 71.296 34.504 70.976 35.144C70.496 36.104 70.144 37.128 69.92 38.216C69.696 39.272 69.584 40.36 69.584 41.48C69.584 43.528 69.904 45.544 70.544 47.528C71.216 49.544 72.096 51.272 73.184 52.712C74.208 54.088 75.2 55.08 76.16 55.688C77.152 56.296 78.08 56.6 78.944 56.6C80.224 56.6 81.36 56.104 82.352 55.112C83.376 54.12 84.224 52.904 84.896 51.464C85.376 50.472 85.776 49.16 86.096 47.528C86.416 45.928 86.656 44.136 86.816 42.152C87.008 40.136 87.104 38.056 87.104 35.912C87.104 33.736 87.008 31.592 86.816 29.48C86.624 27.368 86.304 25.384 85.856 23.528C85.44 21.672 84.912 20.072 84.272 18.728C83.632 17.384 82.848 16.424 81.92 15.848C81.664 15.688 81.424 15.608 81.2 15.608C80.944 15.608 80.688 15.688 80.432 15.848C80.208 16.008 80 16.216 79.808 16.472C79.392 17.048 79.088 17.848 78.896 18.872C78.704 19.864 78.608 20.936 78.608 22.088C78.608 23.432 78.72 24.792 78.944 26.168C79.168 27.512 79.472 28.712 79.856 29.768C80.272 30.792 80.736 31.512 81.248 31.928C81.536 32.184 81.808 32.312 82.064 32.312C82.288 32.312 82.464 32.264 82.592 32.168C82.72 32.04 82.848 31.976 82.976 31.976C83.2 31.976 83.232 32.072 83.072 32.264C82.912 32.424 82.672 32.584 82.352 32.744C82.032 32.904 81.68 32.968 81.296 32.936C80.432 32.84 79.712 32.36 79.136 31.496C78.56 30.632 78.128 29.544 77.84 28.232C77.552 26.888 77.408 25.512 77.408 24.104C77.408 22.6 77.552 21.16 77.84 19.784C78.16 18.408 78.624 17.288 79.232 16.424C79.872 15.56 80.64 15.128 81.536 15.128C81.984 15.128 82.416 15.224 82.832 15.416C84.048 15.928 85.04 16.92 85.808 18.392C86.608 19.832 87.216 21.56 87.632 23.576C88.08 25.56 88.384 27.64 88.544 29.816C88.736 31.992 88.832 34.088 88.832 36.104C88.832 37.736 88.784 39.224 88.688 40.568C88.624 41.912 88.544 43 88.448 43.832C88.256 45.592 87.872 47.272 87.296 48.872C86.72 50.504 86 51.944 85.136 53.192C84.272 54.472 83.28 55.48 82.16 56.216C81.04 56.952 79.856 57.32 78.608 57.32ZM89.0712 53.96C88.7512 53.96 88.4952 53.864 88.3032 53.672C88.0792 53.48 88.0472 53.256 88.2072 53C88.6552 52.328 89.0872 51.368 89.5032 50.12C89.8872 48.904 90.2233 47.624 90.5113 46.28C90.8313 44.936 91.0873 43.72 91.2793 42.632C91.5033 41.512 91.6633 40.728 91.7593 40.28C91.1833 39.736 90.8953 39.128 90.8953 38.456C90.8953 37.944 91.0073 37.512 91.2313 37.16C91.4873 36.808 91.6793 36.648 91.8073 36.68C91.8713 36.68 91.9513 36.712 92.0473 36.776C92.1753 36.808 92.2393 36.856 92.2393 36.92C92.4313 35.416 92.5913 33.928 92.7193 32.456C92.8473 30.952 92.9113 29.576 92.9113 28.328C92.9113 27.304 92.8633 26.392 92.7673 25.592C92.6713 24.792 92.5273 24.152 92.3353 23.672C92.1433 23.192 92.0473 22.824 92.0473 22.568C92.0473 22.216 92.1433 22.04 92.3353 22.04C92.5593 22.04 92.7353 22.184 92.8633 22.472C93.2153 23.176 93.4713 24.28 93.6313 25.784C93.8233 27.288 93.9193 29 93.9193 30.92C93.9193 32.232 93.8873 33.624 93.8233 35.096C93.7593 36.536 93.6473 37.976 93.4873 39.416C94.0633 38.904 94.6553 38.408 95.2633 37.928C95.8713 37.416 96.3993 36.888 96.8473 36.344V36.296C96.8473 36.232 96.8153 36.168 96.7513 36.104C96.7193 36.04 96.7033 35.944 96.7033 35.816C96.7033 35.592 96.8633 35.32 97.1833 35C97.5033 34.68 97.9193 34.232 98.4313 33.656C98.9753 33.048 99.5353 32.504 100.111 32.024C100.687 31.512 101.215 31.272 101.695 31.304C102.079 31.304 102.271 31.432 102.271 31.688C102.271 31.976 101.999 32.408 101.455 32.984C100.911 33.56 100.255 34.168 99.4873 34.808C98.7513 35.448 98.0633 36.04 97.4233 36.584C96.8153 37.096 96.4153 37.448 96.2233 37.64L94.3993 39.656L93.4393 40.664C93.8553 41.72 94.3353 42.76 94.8793 43.784C95.4233 44.808 96.0313 45.656 96.7033 46.328C97.4073 47 98.1273 47.336 98.8633 47.336C99.6313 47.336 100.415 46.872 101.215 45.944C101.759 45.272 102.223 44.52 102.607 43.688C102.991 42.856 103.311 42.232 103.567 41.816C103.727 41.496 103.887 41.288 104.047 41.192C104.207 41.064 104.335 41 104.431 41C104.655 41 104.735 41.16 104.671 41.48C104.543 41.896 104.319 42.424 103.999 43.064C103.679 43.704 103.359 44.312 103.039 44.888C102.751 45.432 102.527 45.816 102.367 46.04C101.759 46.936 101.151 47.592 100.543 48.008C99.9353 48.424 99.3433 48.632 98.7673 48.632C98.0313 48.632 97.3113 48.36 96.6073 47.816C95.9033 47.272 95.2473 46.568 94.6393 45.704C94.0633 44.84 93.5353 43.928 93.0553 42.968C92.7033 45.4 92.2713 47.576 91.7593 49.496C91.2473 51.448 90.6873 52.792 90.0793 53.528C89.7912 53.816 89.4552 53.96 89.0712 53.96ZM116.254 49.256C115.486 49.256 114.91 48.92 114.526 48.248C114.142 47.608 113.95 46.792 113.95 45.8C113.95 45.096 114.094 44.216 114.382 43.16C114.67 42.104 115.07 41 115.582 39.848C116.094 38.696 116.67 37.624 117.31 36.632C117.95 35.608 118.606 34.792 119.278 34.184C119.982 33.544 120.67 33.224 121.342 33.224C121.886 33.224 122.27 33.432 122.494 33.848C122.75 34.232 122.878 34.648 122.878 35.096C122.878 35.48 122.798 35.832 122.638 36.152C122.51 36.44 122.318 36.584 122.062 36.584C121.806 36.584 121.614 36.472 121.486 36.248C121.39 35.992 121.294 35.736 121.198 35.48C121.134 35.224 120.958 35.096 120.67 35.096C120.094 35.096 119.518 35.464 118.942 36.2C118.366 36.936 117.838 37.864 117.358 38.984C116.878 40.104 116.494 41.272 116.206 42.488C115.918 43.672 115.774 44.728 115.774 45.656C115.774 46.328 115.854 46.856 116.014 47.24C116.206 47.656 116.51 47.864 116.926 47.864C117.47 47.864 118.014 47.528 118.558 46.856C119.134 46.152 119.694 45.256 120.238 44.168C120.782 43.048 121.278 41.88 121.726 40.664C122.206 39.448 122.606 38.312 122.926 37.256C123.278 36.168 123.55 35.304 123.742 34.664C123.998 32.424 124.302 30.168 124.654 27.896C125.038 25.624 125.598 23.416 126.334 21.272C126.43 20.92 126.574 20.616 126.766 20.36C126.99 20.104 127.214 19.976 127.438 19.976C127.694 19.976 127.902 20.152 128.062 20.504C128.254 20.856 128.35 21.256 128.35 21.704C128.35 22.056 128.286 22.424 128.158 22.808C128.03 23.192 127.87 23.704 127.678 24.344C127.454 25.112 127.166 26.136 126.814 27.416C126.494 28.664 126.158 30.088 125.806 31.688C125.454 33.256 125.15 34.936 124.894 36.728C124.67 38.488 124.558 40.248 124.558 42.008C124.558 43.352 124.654 44.296 124.846 44.84C125.038 45.384 125.294 45.656 125.614 45.656C125.966 45.656 126.35 45.432 126.766 44.984C127.214 44.536 127.646 43.992 128.062 43.352C128.51 42.712 128.91 42.072 129.262 41.432C129.614 40.76 129.886 40.232 130.078 39.848C130.43 39.144 130.702 38.792 130.894 38.792C131.022 38.792 131.086 38.936 131.086 39.224C131.086 39.448 131.038 39.688 130.942 39.944C130.75 40.36 130.622 40.68 130.558 40.904C130.494 41.096 130.414 41.288 130.318 41.48C130.254 41.672 130.094 41.976 129.838 42.392C129.614 42.776 129.262 43.304 128.782 43.976C128.302 44.616 127.758 45.208 127.15 45.752C126.542 46.264 125.934 46.52 125.326 46.52C124.718 46.52 124.254 46.264 123.934 45.752C123.646 45.24 123.454 44.584 123.358 43.784C123.294 42.952 123.262 42.104 123.262 41.24C123.262 40.184 123.31 39.064 123.406 37.88C123.182 38.648 122.878 39.56 122.494 40.616C122.11 41.64 121.678 42.68 121.198 43.736C120.718 44.792 120.206 45.752 119.662 46.616C119.214 47.32 118.718 47.928 118.174 48.44C117.63 48.984 116.99 49.256 116.254 49.256ZM133.333 47.624C132.181 47.624 131.173 46.952 130.309 45.608C129.477 44.232 129.061 42.072 129.061 39.128C129.061 37.208 129.301 35.672 129.781 34.52C130.261 33.336 130.853 32.472 131.557 31.928C132.261 31.384 132.933 31.112 133.573 31.112C134.213 31.112 134.757 31.336 135.205 31.784C135.653 32.2 135.877 32.808 135.877 33.608C135.877 34.376 135.653 35.192 135.205 36.056C134.757 36.888 134.213 37.656 133.573 38.36C132.965 39.032 132.357 39.48 131.749 39.704C131.621 39.768 131.461 39.8 131.269 39.8C131.141 39.8 131.077 39.752 131.077 39.656C131.077 39.4 131.333 39.112 131.845 38.792C132.485 38.344 133.093 37.672 133.669 36.776C134.245 35.848 134.533 35.032 134.533 34.328C134.533 33.912 134.437 33.592 134.245 33.368C134.053 33.112 133.829 32.984 133.573 32.984C133.093 32.984 132.565 33.368 131.989 34.136C131.445 34.872 131.045 36.152 130.789 37.976C130.725 38.488 130.661 38.984 130.597 39.464C130.565 39.912 130.549 40.36 130.549 40.808C130.549 42.6 130.821 44.008 131.365 45.032C131.909 46.024 132.629 46.52 133.525 46.52C134.293 46.52 135.157 46.072 136.117 45.176C137.077 44.248 138.021 42.808 138.949 40.856C139.173 40.344 139.429 40.088 139.717 40.088C139.909 40.088 140.005 40.216 140.005 40.472C140.005 40.696 139.941 40.936 139.812 41.192C138.981 43.24 137.973 44.824 136.789 45.944C135.605 47.064 134.453 47.624 133.333 47.624ZM142.752 50.216C142.56 50.216 142.368 50.104 142.176 49.88C142.016 49.656 141.904 49.304 141.84 48.824C141.808 48.696 141.792 48.504 141.792 48.248C141.792 48.024 141.792 47.752 141.792 47.432C141.792 46.792 141.792 46.152 141.792 45.512C141.824 44.84 141.84 44.392 141.84 44.168C141.84 42.824 141.776 41.464 141.648 40.088C141.52 38.712 141.264 37.56 140.88 36.632C140.496 35.704 139.888 35.24 139.056 35.24C138.544 35.24 138.064 35.432 137.616 35.816C137.2 36.168 136.848 36.536 136.56 36.92C136.24 37.304 136.016 37.496 135.888 37.496C135.76 37.496 135.696 37.432 135.696 37.304C135.696 37.144 135.84 36.888 136.128 36.536C136.416 36.152 136.624 35.896 136.752 35.768C137.232 35.288 137.76 34.856 138.336 34.472C138.944 34.088 139.504 33.896 140.016 33.896C140.816 33.896 141.44 34.344 141.888 35.24C142.336 36.104 142.656 37.208 142.848 38.552C143.04 39.864 143.136 41.192 143.136 42.536C143.136 43.208 143.12 43.864 143.088 44.504C143.056 45.112 143.008 45.672 142.944 46.184C143.232 45.384 143.6 44.44 144.048 43.352C144.496 42.232 145.008 41.096 145.584 39.944C146.192 38.76 146.832 37.656 147.504 36.632C148.176 35.608 148.896 34.76 149.664 34.088C150.112 33.704 150.448 33.512 150.672 33.512C150.864 33.512 150.96 33.608 150.96 33.8C150.96 34.12 150.688 34.52 150.144 35C149.024 35.992 148.08 37.128 147.312 38.408C146.544 39.688 145.92 41 145.44 42.344C144.992 43.688 144.656 44.952 144.432 46.136C144.208 47.32 144.064 48.296 144 49.064C143.968 49.288 143.824 49.528 143.568 49.784C143.312 50.072 143.04 50.216 142.752 50.216ZM153.676 47.624C152.524 47.624 151.516 46.952 150.652 45.608C149.82 44.232 149.404 42.072 149.404 39.128C149.404 37.208 149.644 35.672 150.124 34.52C150.604 33.336 151.196 32.472 151.9 31.928C152.604 31.384 153.276 31.112 153.916 31.112C154.556 31.112 155.1 31.336 155.548 31.784C155.996 32.2 156.22 32.808 156.22 33.608C156.22 34.376 155.996 35.192 155.548 36.056C155.1 36.888 154.556 37.656 153.916 38.36C153.308 39.032 152.7 39.48 152.092 39.704C151.964 39.768 151.804 39.8 151.612 39.8C151.484 39.8 151.42 39.752 151.42 39.656C151.42 39.4 151.676 39.112 152.188 38.792C152.828 38.344 153.436 37.672 154.012 36.776C154.588 35.848 154.876 35.032 154.876 34.328C154.876 33.912 154.78 33.592 154.588 33.368C154.396 33.112 154.172 32.984 153.916 32.984C153.436 32.984 152.908 33.368 152.332 34.136C151.788 34.872 151.388 36.152 151.132 37.976C151.068 38.488 151.004 38.984 150.94 39.464C150.908 39.912 150.892 40.36 150.892 40.808C150.892 42.6 151.164 44.008 151.708 45.032C152.252 46.024 152.972 46.52 153.868 46.52C154.636 46.52 155.5 46.072 156.46 45.176C157.42 44.248 158.364 42.808 159.292 40.856C159.516 40.344 159.772 40.088 160.06 40.088C160.252 40.088 160.348 40.216 160.348 40.472C160.348 40.696 160.284 40.936 160.156 41.192C159.324 43.24 158.316 44.824 157.132 45.944C155.948 47.064 154.796 47.624 153.676 47.624ZM166.264 54.632C165.848 54.632 165.448 54.472 165.064 54.152C164.712 53.832 164.408 53.512 164.152 53.192C163.128 52.008 162.264 50.44 161.56 48.488C160.888 46.536 160.376 44.392 160.024 42.056C159.672 39.688 159.496 37.288 159.496 34.856C159.496 32.584 159.64 30.376 159.928 28.232C160.248 26.088 160.728 24.136 161.368 22.376C162.008 20.616 162.808 19.208 163.768 18.152C165.016 16.744 166.216 16.04 167.368 16.04C168.072 16.04 168.632 16.36 169.048 17C169.496 17.608 169.72 18.584 169.72 19.928C169.72 21.208 169.464 22.84 168.952 24.824C168.472 26.776 167.64 29.112 166.456 31.832C166.04 32.728 165.592 33.624 165.112 34.52C164.664 35.416 164.184 36.36 163.672 37.352C163.48 37.736 163.32 37.928 163.192 37.928C163.128 37.928 163.096 37.864 163.096 37.736C163.096 37.48 163.208 37.144 163.432 36.728C166.344 31.256 167.8 25.816 167.8 20.408C167.8 18.264 167.352 17.192 166.456 17.192C165.816 17.192 165.064 17.816 164.2 19.064C163.016 20.824 162.2 22.92 161.752 25.352C161.304 27.752 161.08 30.184 161.08 32.648C161.08 34.504 161.16 36.312 161.32 38.072C161.48 39.8 161.672 41.368 161.896 42.776C161.992 43.384 162.136 44.2 162.328 45.224C162.52 46.248 162.776 47.32 163.096 48.44C163.416 49.592 163.768 50.632 164.152 51.56C164.568 52.52 165.016 53.208 165.496 53.624C165.624 53.72 165.752 53.816 165.88 53.912C166.04 54.04 166.216 54.12 166.408 54.152C166.696 54.152 166.84 54.232 166.84 54.392C166.84 54.552 166.648 54.632 166.264 54.632ZM171.734 48.68C170.678 48.68 169.814 48.36 169.142 47.72C168.502 47.08 168.022 46.264 167.702 45.272C167.382 44.248 167.222 43.176 167.222 42.056C167.222 41.384 167.286 40.744 167.414 40.136C167.542 39.528 167.67 39.032 167.798 38.648C167.766 38.424 167.734 38.2 167.702 37.976C167.702 37.72 167.702 37.464 167.702 37.208C167.702 36.28 167.798 35.272 167.99 34.184C168.182 33.096 168.486 32.056 168.902 31.064C169.35 30.072 169.894 29.272 170.534 28.664C171.206 28.024 172.022 27.704 172.982 27.704C173.814 27.704 174.63 28.056 175.43 28.76C176.23 29.432 176.934 30.424 177.542 31.736C177.894 32.472 178.134 33.272 178.262 34.136C178.422 34.968 178.502 35.816 178.502 36.68C178.502 37.864 178.374 39.048 178.118 40.232C177.894 41.384 177.558 42.472 177.11 43.496C176.79 44.232 176.358 45.016 175.814 45.848C175.302 46.648 174.71 47.32 174.038 47.864C173.366 48.408 172.598 48.68 171.734 48.68ZM171.974 47.624C173.062 47.624 174.07 46.872 174.998 45.368C175.67 44.312 176.15 43.112 176.438 41.768C176.726 40.392 176.87 39.016 176.87 37.64C176.87 36.616 176.806 35.624 176.678 34.664C176.55 33.704 176.358 32.776 176.102 31.88C175.878 31.08 175.494 30.376 174.95 29.768C174.438 29.128 173.702 28.856 172.742 28.952C171.974 29.016 171.302 29.4 170.726 30.104C170.15 30.808 169.702 31.608 169.382 32.504C169.094 33.368 168.95 34.12 168.95 34.76C168.95 35.112 168.998 35.384 169.094 35.576C169.19 35.32 169.43 34.904 169.814 34.328C170.198 33.72 170.63 33.176 171.11 32.696C171.59 32.184 172.038 31.928 172.454 31.928C172.806 31.928 172.982 32.072 172.982 32.36C172.566 32.392 172.15 32.648 171.734 33.128C171.35 33.576 170.982 34.12 170.63 34.76C170.31 35.4 170.038 36.04 169.814 36.68C169.622 37.288 169.478 37.768 169.382 38.12C169.35 38.248 169.302 38.408 169.238 38.6C169.174 38.792 169.142 38.984 169.142 39.176C169.142 39.4 169.27 39.768 169.526 40.28C169.782 40.76 170.198 41.208 170.774 41.624C171.35 42.04 172.134 42.248 173.126 42.248C173.414 42.248 173.718 42.216 174.038 42.152C174.358 42.088 174.662 42.024 174.95 41.96L175.286 41.864C175.35 41.864 175.382 41.896 175.382 41.96C175.382 42.056 175.27 42.184 175.046 42.344C174.854 42.472 174.678 42.568 174.518 42.632C174.07 42.856 173.574 42.968 173.03 42.968C172.23 42.968 171.462 42.728 170.726 42.248C170.022 41.736 169.398 41.16 168.854 40.52C168.822 40.776 168.806 41.032 168.806 41.288C168.806 41.512 168.806 41.736 168.806 41.96C168.806 43.816 169.126 45.224 169.766 46.184C170.406 47.144 171.142 47.624 171.974 47.624ZM180.157 62.648C179.677 62.648 179.293 62.328 179.005 61.688C178.716 61.08 178.508 60.344 178.38 59.48C178.22 58.616 178.14 57.816 178.14 57.08C178.14 56.728 178.156 56.216 178.188 55.544C178.22 54.872 178.268 54.152 178.332 53.384C178.396 52.616 178.46 51.896 178.524 51.224C178.588 50.552 178.636 50.04 178.668 49.688C178.957 47.512 179.389 45.416 179.965 43.4C180.541 41.352 181.165 39.352 181.837 37.4C181.869 37.336 181.901 37.24 181.933 37.112C181.997 36.984 182.045 36.92 182.077 36.92V36.776C181.757 36.904 181.341 37.208 180.829 37.688C180.349 38.168 179.997 38.536 179.773 38.792C179.549 39.016 179.341 39.256 179.149 39.512C178.957 39.736 178.732 39.848 178.476 39.848C178.22 39.848 178.092 39.704 178.092 39.416C178.092 39.064 178.284 38.712 178.668 38.36C179.021 37.976 179.421 37.624 179.869 37.304C180.317 36.952 180.797 36.632 181.309 36.344C181.853 36.056 182.237 35.848 182.461 35.72C182.557 35.656 182.621 35.576 182.653 35.48C182.717 35.384 182.765 35.288 182.797 35.192C183.021 34.84 183.245 34.504 183.469 34.184C183.725 33.864 184.061 33.64 184.477 33.512C184.765 33.544 185.085 33.608 185.437 33.704C185.789 33.8 185.997 34.024 186.061 34.376C186.061 34.504 186.093 34.568 186.157 34.568V34.616C186.317 34.616 186.509 34.6 186.733 34.568C186.989 34.504 187.277 34.472 187.597 34.472C188.845 34.472 189.853 34.792 190.621 35.432C191.389 36.072 191.773 36.92 191.773 37.976C191.773 38.968 191.485 40.04 190.909 41.192C190.333 42.312 189.709 43.224 189.037 43.928C187.981 44.984 186.861 45.912 185.677 46.712C184.525 47.48 183.533 47.864 182.701 47.864C182.189 47.864 181.837 47.72 181.645 47.432C181.485 47.176 181.405 46.856 181.405 46.472C181.405 45.928 181.645 45.384 182.125 44.84C182.605 44.296 183.085 43.832 183.565 43.448C184.109 43 184.669 42.584 185.245 42.2C185.853 41.816 186.365 41.496 186.781 41.24C187.005 41.08 187.213 40.936 187.405 40.808C187.629 40.68 187.821 40.616 187.981 40.616C188.077 40.616 188.125 40.664 188.125 40.76C188.125 40.824 187.933 40.984 187.549 41.24C187.197 41.496 186.893 41.72 186.637 41.912C186.445 42.072 186.109 42.36 185.629 42.776C185.149 43.16 184.637 43.608 184.093 44.12C183.581 44.6 183.133 45.096 182.749 45.608C182.365 46.12 182.173 46.568 182.173 46.952C182.685 46.952 183.245 46.744 183.853 46.328C184.493 45.88 185.117 45.368 185.725 44.792C186.365 44.216 186.909 43.736 187.357 43.352C187.773 42.968 188.269 42.44 188.845 41.768C189.421 41.096 189.933 40.376 190.381 39.608C190.829 38.84 191.053 38.136 191.053 37.496C191.053 36.664 190.733 36.056 190.093 35.672C189.485 35.256 188.749 35.048 187.885 35.048C187.597 35.048 187.229 35.08 186.781 35.144C186.333 35.208 186.061 35.272 185.965 35.336C185.261 36.424 184.589 37.528 183.949 38.648C183.309 39.768 182.717 40.92 182.173 42.104C181.277 44.024 180.557 45.976 180.013 47.96C179.501 49.944 179.165 52.088 179.005 54.392C178.973 54.936 178.925 55.512 178.861 56.12C178.829 56.728 178.829 57.336 178.861 57.944C178.893 58.264 178.957 58.776 179.053 59.48C179.149 60.184 179.309 60.824 179.533 61.4C179.757 61.976 180.061 62.264 180.445 62.264C180.477 62.264 180.541 62.264 180.637 62.264C180.733 62.264 180.781 62.28 180.781 62.312V62.456C180.557 62.584 180.349 62.648 180.157 62.648ZM196.426 47.624C195.274 47.624 194.266 46.952 193.402 45.608C192.57 44.232 192.154 42.072 192.154 39.128C192.154 37.208 192.394 35.672 192.874 34.52C193.354 33.336 193.946 32.472 194.65 31.928C195.354 31.384 196.026 31.112 196.666 31.112C197.306 31.112 197.85 31.336 198.298 31.784C198.746 32.2 198.97 32.808 198.97 33.608C198.97 34.376 198.746 35.192 198.298 36.056C197.85 36.888 197.306 37.656 196.666 38.36C196.058 39.032 195.45 39.48 194.842 39.704C194.714 39.768 194.554 39.8 194.362 39.8C194.234 39.8 194.17 39.752 194.17 39.656C194.17 39.4 194.426 39.112 194.938 38.792C195.578 38.344 196.186 37.672 196.762 36.776C197.338 35.848 197.626 35.032 197.626 34.328C197.626 33.912 197.53 33.592 197.338 33.368C197.146 33.112 196.922 32.984 196.666 32.984C196.186 32.984 195.658 33.368 195.082 34.136C194.538 34.872 194.138 36.152 193.882 37.976C193.818 38.488 193.754 38.984 193.69 39.464C193.658 39.912 193.642 40.36 193.642 40.808C193.642 42.6 193.914 44.008 194.458 45.032C195.002 46.024 195.722 46.52 196.618 46.52C197.386 46.52 198.25 46.072 199.21 45.176C200.17 44.248 201.114 42.808 202.042 40.856C202.266 40.344 202.522 40.088 202.81 40.088C203.002 40.088 203.098 40.216 203.098 40.472C203.098 40.696 203.034 40.936 202.906 41.192C202.074 43.24 201.066 44.824 199.882 45.944C198.698 47.064 197.546 47.624 196.426 47.624ZM208.054 49.4C207.03 49.4 206.246 48.92 205.702 47.96C205.158 47.032 204.886 46.008 204.886 44.888C204.886 43.832 205.062 42.728 205.414 41.576C205.766 40.424 206.198 39.288 206.71 38.168C207.254 37.048 207.814 36.024 208.39 35.096C207.814 35.32 207.27 35.432 206.758 35.432C206.502 35.432 206.278 35.4 206.086 35.336C205.894 35.272 205.734 35.224 205.606 35.192C205.446 35.576 205.158 36.216 204.742 37.112C204.358 38.008 203.942 38.952 203.494 39.944C203.078 40.904 202.71 41.72 202.39 42.392C201.878 43.48 201.43 44.024 201.046 44.024C200.854 44.024 200.758 43.896 200.758 43.64C200.758 43.448 200.838 43.192 200.998 42.872C201.734 41.496 202.422 40.136 203.062 38.792C203.734 37.448 204.342 36.152 204.886 34.904C204.822 34.744 204.758 34.536 204.694 34.28C204.63 33.992 204.598 33.688 204.598 33.368C204.598 33.016 204.63 32.648 204.694 32.264C204.79 31.848 204.918 31.448 205.078 31.064C205.174 30.84 205.35 30.52 205.606 30.104C205.862 29.656 206.15 29.256 206.47 28.904C206.79 28.52 207.094 28.328 207.382 28.328C207.926 28.328 208.198 28.616 208.198 29.192C208.198 29.736 208.022 30.36 207.67 31.064C207.35 31.768 207.014 32.424 206.662 33.032C206.31 33.608 206.134 34.04 206.134 34.328C206.134 34.584 206.262 34.712 206.518 34.712C206.87 34.712 207.302 34.536 207.814 34.184C208.358 33.8 208.79 33.448 209.11 33.128C209.27 32.968 209.526 32.728 209.878 32.408C210.23 32.056 210.566 31.88 210.886 31.88C211.206 31.88 211.414 31.976 211.51 32.168C211.638 32.36 211.702 32.584 211.702 32.84C211.702 33.128 211.574 33.496 211.318 33.944C211.062 34.36 210.758 34.776 210.406 35.192C210.086 35.608 209.814 35.96 209.59 36.248C209.142 36.92 208.63 37.768 208.054 38.792C207.478 39.816 206.982 40.92 206.566 42.104C206.15 43.256 205.942 44.36 205.942 45.416C205.942 46.12 206.118 46.856 206.47 47.624C206.822 48.392 207.302 48.776 207.91 48.776C208.454 48.776 209.03 48.488 209.638 47.912C210.278 47.336 210.87 46.648 211.414 45.848C211.99 45.048 212.486 44.28 212.902 43.544C213.35 42.808 213.654 42.296 213.814 42.008C213.878 41.848 213.99 41.656 214.15 41.432C214.31 41.176 214.502 41.048 214.726 41.048C214.918 41.048 215.014 41.144 215.014 41.336C215.014 41.496 214.966 41.688 214.87 41.912C214.806 42.104 214.742 42.28 214.678 42.44C214.39 43.112 214.038 43.816 213.622 44.552C213.206 45.288 212.918 45.784 212.758 46.04C212.31 46.776 211.638 47.512 210.742 48.248C209.878 49.016 208.982 49.4 208.054 49.4ZM218.222 49.064C217.806 49.064 217.502 48.92 217.31 48.632C217.15 48.376 217.07 48.12 217.07 47.864C217.07 47.352 217.294 46.824 217.742 46.28C217.902 46.088 218.126 45.832 218.414 45.512C218.702 45.16 218.91 44.888 219.038 44.696C218.622 44.12 218.062 43.592 217.358 43.112C216.654 42.632 215.966 42.024 215.294 41.288C214.686 40.616 214.174 39.8 213.758 38.84C213.342 37.848 213.134 36.904 213.134 36.008C213.134 34.952 213.374 33.944 213.854 32.984C214.334 32.024 214.926 31.192 215.63 30.488C216.398 29.72 217.246 29.112 218.174 28.664C219.102 28.184 220.062 27.944 221.054 27.944C221.726 27.944 222.382 28.104 223.022 28.424C223.662 28.744 223.982 29.272 223.982 30.008C223.982 30.872 223.79 31.304 223.406 31.304C223.246 31.304 223.134 31.144 223.07 30.824C223.038 30.664 223.022 30.504 223.022 30.344C223.022 30.152 223.022 30.024 223.022 29.96C223.022 29.64 222.878 29.368 222.59 29.144C222.302 28.888 221.982 28.76 221.63 28.76C220.894 28.76 220.078 29.048 219.182 29.624C218.286 30.2 217.534 30.872 216.926 31.64C216.318 32.44 215.822 33.352 215.438 34.376C215.054 35.368 214.862 36.328 214.862 37.256C214.862 38.408 215.118 39.4 215.63 40.232C216.142 41.064 216.75 41.8 217.454 42.44C218.19 43.08 218.846 43.704 219.422 44.312C219.71 43.96 220.014 43.624 220.334 43.304C220.686 42.984 221.006 42.728 221.294 42.536C221.55 42.376 221.726 42.296 221.822 42.296C221.918 42.296 221.966 42.344 221.966 42.44C221.966 42.6 221.822 42.792 221.534 43.016C221.47 43.08 221.278 43.272 220.958 43.592C220.67 43.88 220.318 44.248 219.902 44.696C220.158 44.984 220.366 45.288 220.526 45.608C220.686 45.928 220.766 46.28 220.766 46.664C220.766 47.176 220.478 47.704 219.902 48.248C219.326 48.792 218.766 49.064 218.222 49.064ZM218.75 47.768C218.974 47.768 219.182 47.56 219.374 47.144C219.598 46.76 219.71 46.376 219.71 45.992C219.71 45.8 219.678 45.624 219.614 45.464C219.55 45.304 219.502 45.208 219.47 45.176C219.214 45.496 218.974 45.848 218.75 46.232C218.558 46.584 218.462 46.904 218.462 47.192C218.462 47.576 218.558 47.768 218.75 47.768Z" fill="black"/>
<defs>
<linearGradient id="paint0_linear_46_47" x1="57.0431" y1="24.9164" x2="4.00338" y2="24.9164" gradientUnits="userSpaceOnUse">
<stop stop-color="#161490"/>
<stop offset="0.510417" stop-color="#7476ED"/>
<stop offset="1" stop-color="#E56F8C"/>
</linearGradient>
</defs>
</svg>
